# xmcd
#
# Track frame offsets: 
#        150
#        26772
#        48946
#        67865
#        89882
#        119788
#        142259
#        169721
#        188948
#        211685
#        244887
#
# Disc length: 4075 seconds
#
# Revision: 0
# Processed by: cddbd v1.5.2PL0 Copyright (c) Steve Scherf et al.
# Submitted via: ExactAudioCopyFreeDBPlugin 1.0
#
DISCID=a60fe90b
DTITLE=Honey Hush - Live at ''Le Rouge Gorge''
DYEAR=2008
DGENRE=Blues
TTITLE0=The Chicken
TTITLE1=Honey Hush
TTITLE2=Nasty Habits
TTITLE3=Next Time You See Me
TTITLE4=The Things That I Used To Do
TTITLE5=Lucille
TTITLE6=Oh Pretty Woman
TTITLE7=You Don't Miss Your Water
TTITLE8=I Can Tell
TTITLE9=Five Long Years
TTITLE10=Messin' With The Kid
EXTD=
EXTT0=
EXTT1=
EXTT2=
EXTT3=
EXTT4=
EXTT5=
EXTT6=
EXTT7=
EXTT8=
EXTT9=
EXTT10=
PLAYORDER=
